<svg xmlns="http://www.w3.org/2000/svg" width="1200" height="760" viewBox="0 0 1200 760" role="img" aria-labelledby="title desc">
  <title id="title">Single-page report shell example</title>
  <desc id="desc">A visual example of a long scrolling report with section navigation, editable content blocks, and a right-side style drawer.</desc>
  <defs>
    <linearGradient id="bg" x1="0" y1="0" x2="1" y2="1">
      <stop offset="0" stop-color="#f4f8ff"/>
      <stop offset="1" stop-color="#eef3f8"/>
    </linearGradient>
    <linearGradient id="hero" x1="0" y1="0" x2="1" y2="1">
      <stop offset="0" stop-color="#1e5aa8"/>
      <stop offset="1" stop-color="#19a7b8"/>
    </linearGradient>
    <filter id="shadow" x="-20%" y="-20%" width="140%" height="140%">
      <feDropShadow dx="0" dy="18" stdDeviation="18" flood-color="#1c2f4c" flood-opacity=".16"/>
    </filter>
  </defs>
  <rect width="1200" height="760" rx="0" fill="url(#bg)"/>
  <g transform="translate(72 48)">
    <rect x="0" y="0" width="790" height="664" rx="10" fill="#ffffff" filter="url(#shadow)"/>
    <rect x="0" y="0" width="790" height="172" rx="10" fill="url(#hero)"/>
    <rect x="44" y="42" width="180" height="14" rx="7" fill="#dff6ff" opacity=".85"/>
    <rect x="44" y="76" width="510" height="28" rx="6" fill="#ffffff" opacity=".94"/>
    <rect x="44" y="118" width="610" height="12" rx="6" fill="#ffffff" opacity=".62"/>
    <rect x="44" y="140" width="430" height="12" rx="6" fill="#ffffff" opacity=".46"/>
    <g transform="translate(44 214)">
      <rect width="702" height="116" rx="8" fill="#f6f9fc" stroke="#d9e2ec"/>
      <rect x="24" y="26" width="170" height="18" rx="4" fill="#1e5aa8"/>
      <rect x="24" y="58" width="600" height="10" rx="5" fill="#647082" opacity=".38"/>
      <rect x="24" y="80" width="488" height="10" rx="5" fill="#647082" opacity=".25"/>
    </g>
    <g transform="translate(44 360)">
      <rect width="216" height="134" rx="8" fill="#ffffff" stroke="#d9e2ec"/>
      <rect x="20" y="22" width="42" height="12" rx="6" fill="#19a7b8"/>
      <rect x="20" y="50" width="148" height="16" rx="5" fill="#18212f"/>
      <rect x="20" y="82" width="170" height="9" rx="4" fill="#647082" opacity=".35"/>
      <rect x="20" y="100" width="130" height="9" rx="4" fill="#647082" opacity=".25"/>
    </g>
    <g transform="translate(287 360)">
      <rect width="216" height="134" rx="8" fill="#ffffff" stroke="#d9e2ec"/>
      <rect x="20" y="22" width="42" height="12" rx="6" fill="#19a7b8"/>
      <rect x="20" y="50" width="148" height="16" rx="5" fill="#18212f"/>
      <rect x="20" y="82" width="170" height="9" rx="4" fill="#647082" opacity=".35"/>
      <rect x="20" y="100" width="130" height="9" rx="4" fill="#647082" opacity=".25"/>
    </g>
    <g transform="translate(530 360)">
      <rect width="216" height="134" rx="8" fill="#ffffff" stroke="#d9e2ec"/>
      <rect x="20" y="22" width="42" height="12" rx="6" fill="#19a7b8"/>
      <rect x="20" y="50" width="148" height="16" rx="5" fill="#18212f"/>
      <rect x="20" y="82" width="170" height="9" rx="4" fill="#647082" opacity=".35"/>
      <rect x="20" y="100" width="130" height="9" rx="4" fill="#647082" opacity=".25"/>
    </g>
    <g transform="translate(44 536)">
      <rect width="702" height="84" rx="8" fill="#f6f9fc" stroke="#d9e2ec"/>
      <rect x="24" y="24" width="160" height="13" rx="6" fill="#1e5aa8"/>
      <rect x="24" y="54" width="610" height="9" rx="4" fill="#647082" opacity=".28"/>
    </g>
  </g>
  <g transform="translate(895 86)">
    <rect width="118" height="302" rx="8" fill="#ffffff" stroke="#d9e2ec" filter="url(#shadow)"/>
    <text x="59" y="28" text-anchor="middle" font-family="Arial, sans-serif" font-size="13" font-weight="700" fill="#1e5aa8">章节导航</text>
    <rect x="18" y="54" width="82" height="24" rx="6" fill="#eaf3ff"/>
    <rect x="18" y="92" width="82" height="24" rx="6" fill="#f6f9fc"/>
    <rect x="18" y="130" width="82" height="24" rx="6" fill="#f6f9fc"/>
    <rect x="18" y="168" width="82" height="24" rx="6" fill="#f6f9fc"/>
    <rect x="18" y="206" width="82" height="24" rx="6" fill="#f6f9fc"/>
    <rect x="18" y="244" width="82" height="24" rx="6" fill="#f6f9fc"/>
  </g>
  <g transform="translate(1028 0)">
    <rect width="172" height="760" fill="#ffffff" stroke="#d9e2ec"/>
    <text x="86" y="46" text-anchor="middle" font-family="Arial, sans-serif" font-size="15" font-weight="700" fill="#18212f">样式抽屉</text>
    <rect x="22" y="72" width="128" height="32" rx="6" fill="#1e5aa8"/>
    <text x="86" y="93" text-anchor="middle" font-family="Arial, sans-serif" font-size="12" font-weight="700" fill="#ffffff">编辑模式</text>
    <rect x="18" y="132" width="136" height="46" rx="7" fill="#f6f9fc" stroke="#d9e2ec"/>
    <rect x="18" y="194" width="136" height="46" rx="7" fill="#f6f9fc" stroke="#d9e2ec"/>
    <rect x="18" y="256" width="136" height="46" rx="7" fill="#f6f9fc" stroke="#d9e2ec"/>
    <rect x="18" y="318" width="136" height="46" rx="7" fill="#f6f9fc" stroke="#d9e2ec"/>
    <g transform="translate(18 668)">
      <rect width="40" height="32" rx="6" fill="#ffffff" stroke="#d9e2ec"/>
      <rect x="48" width="40" height="32" rx="6" fill="#ffffff" stroke="#d9e2ec"/>
      <rect x="96" width="40" height="32" rx="6" fill="#ffffff" stroke="#d9e2ec"/>
      <text x="20" y="21" text-anchor="middle" font-family="Arial, sans-serif" font-size="10" fill="#18212f">HTML</text>
      <text x="68" y="21" text-anchor="middle" font-family="Arial, sans-serif" font-size="10" fill="#18212f">图片</text>
      <text x="116" y="21" text-anchor="middle" font-family="Arial, sans-serif" font-size="10" fill="#18212f">PDF</text>
    </g>
  </g>
</svg>
